<svg width="240" height="54" viewBox="0 0 240 54" fill="none" xmlns="http://www.w3.org/2000/svg">
<g clip-path="url(#clip0)">
<path d="M97.8359 45.0018C97.8359 45.0018 118.169 41.381 144.662 46.3319C174.644 51.9478 203.948 38.7705 203.948 38.7705" stroke="#F72E6C" stroke-width="0.720942" stroke-miterlimit="10"/>
<path d="M157.754 42.9038C157.754 42.9038 173.471 41.0536 185.177 44.2914C199.593 50.0723 196.228 39.7584 202.859 39.2959" stroke="#F72E6C" stroke-width="0.720942" stroke-miterlimit="10"/>
<path d="M233.69 33.635C225.433 43.8632 211.804 46.9273 203.721 40.1238C195.639 33.3204 196.152 19.1806 204.409 8.95241C212.666 -1.27582 224.551 -1.77511 232.633 5.02831C240.716 11.8317 241.947 23.4068 233.69 33.635Z" fill="url(#paint0_linear)"/>
<path d="M204.756 39.907L203.401 38.7378L200.808 40.4262L203.674 42.9074L204.756 39.907Z" fill="url(#paint1_linear)"/>
<path d="M12.716 28.3819C13.1273 28.3819 13.5271 28.545 13.9156 28.8713C14.2354 29.2675 14.3954 29.6753 14.3954 30.0949C14.3954 30.5144 14.2354 30.9222 13.9156 31.3184C13.5728 31.668 13.173 31.8428 12.716 31.8428H2.05702C1.32586 31.8428 0.811756 31.5165 0.514722 30.8639C0.217687 30.0482 0.274809 29.4306 0.686088 29.0111L9.2544 17.7545H1.98847C1.5315 17.7545 1.13164 17.5797 0.788908 17.2301C0.469024 16.8339 0.309082 16.426 0.309082 16.0065C0.309082 15.587 0.469024 15.1792 0.788908 14.783C1.17734 14.4567 1.57719 14.2936 1.98847 14.2936H12.6475C13.4015 14.2936 13.9156 14.6198 14.1898 15.2724C14.5325 15.925 14.4754 16.5309 14.0184 17.0903L5.45007 28.3819H12.716Z" fill="#1C1E61"/>
<path d="M31.6731 30.0599C31.6731 30.5726 31.5131 30.9921 31.1933 31.3184C30.8734 31.6447 30.4621 31.8078 29.9594 31.8078C29.6395 31.8078 29.2854 31.6447 28.897 31.3184C28.5085 30.9222 28.3143 30.5027 28.3143 30.0599C26.8977 31.2252 25.2069 31.8078 23.2419 31.8078C20.8199 31.8078 18.7749 30.9921 17.107 29.3607C15.4161 27.706 14.5707 25.6551 14.5707 23.208C14.5707 20.7609 15.4161 18.675 17.107 16.9504C18.7978 15.2258 20.8427 14.3635 23.2419 14.3635C25.641 14.3635 27.6517 15.2258 29.274 16.9504C30.8734 18.6517 31.6731 20.7376 31.6731 23.208V30.0599ZM19.5061 26.8787C20.4886 27.8808 21.7338 28.3819 23.2419 28.3819C24.6813 28.3819 25.8923 27.8808 26.8748 26.8787C27.8345 25.8998 28.3143 24.6763 28.3143 23.208C28.3143 21.7164 27.8345 20.4463 26.8748 19.3975C25.8923 18.3255 24.6813 17.7894 23.2419 17.7894C21.8024 17.7894 20.5571 18.3255 19.5061 19.3975C18.455 20.4696 17.9295 21.7397 17.9295 23.208C17.9295 24.653 18.455 25.8765 19.5061 26.8787Z" fill="#1C1E61"/>
<path d="M37.9033 23.173L36.8409 23.9072V30.0249C36.8409 30.5144 36.6695 30.9222 36.3267 31.2485C35.984 31.5981 35.5842 31.7729 35.1272 31.7729C34.6702 31.7729 34.2704 31.5981 33.9276 31.2485C33.6077 30.9222 33.4478 30.5144 33.4478 30.0249V7.37176C33.4478 6.95225 33.6077 6.5444 33.9276 6.14821C34.3161 5.82193 34.7159 5.65879 35.1272 5.65879C35.5385 5.65879 35.9383 5.82193 36.3267 6.14821C36.6695 6.49779 36.8409 6.90564 36.8409 7.37176V19.817L44.6209 14.6082C44.9179 14.3052 45.3292 14.177 45.8547 14.2236C46.3345 14.2703 46.723 14.4684 47.02 14.8179C47.317 15.1209 47.4427 15.5404 47.397 16.0764C47.3742 16.5426 47.1685 16.9388 46.7801 17.265L40.7823 21.2853L47.02 28.9412C47.317 29.2442 47.4427 29.6637 47.397 30.1997C47.3742 30.6425 47.1685 31.0271 46.7801 31.3534C46.4831 31.633 46.1289 31.7729 45.7176 31.7729C45.1693 31.7729 44.7351 31.5631 44.4152 31.1436L37.9033 23.173Z" fill="#1C1E61"/>
<path d="M64.2233 30.0599C64.2233 30.5726 64.0634 30.9921 63.7435 31.3184C63.4236 31.6447 63.0123 31.8078 62.5096 31.8078C62.1898 31.8078 61.8356 31.6447 61.4472 31.3184C61.0587 30.9222 60.8645 30.5027 60.8645 30.0599C59.4479 31.2252 57.7571 31.8078 55.7921 31.8078C53.3701 31.8078 51.3251 30.9921 49.6572 29.3607C47.9664 27.706 47.121 25.6551 47.121 23.208C47.121 20.7609 47.9664 18.675 49.6572 16.9504C51.348 15.2258 53.393 14.3635 55.7921 14.3635C58.1912 14.3635 60.2019 15.2258 61.8242 16.9504C63.4236 18.6517 64.2233 20.7376 64.2233 23.208V30.0599ZM52.0563 26.8787C53.0388 27.8808 54.2841 28.3819 55.7921 28.3819C57.2316 28.3819 58.4426 27.8808 59.4251 26.8787C60.3847 25.8998 60.8645 24.6763 60.8645 23.208C60.8645 21.7164 60.3847 20.4463 59.4251 19.3975C58.4426 18.3255 57.2316 17.7894 55.7921 17.7894C54.3526 17.7894 53.1073 18.3255 52.0563 19.3975C51.0053 20.4696 50.4797 21.7397 50.4797 23.208C50.4797 24.653 51.0053 25.8765 52.0563 26.8787Z" fill="#1C1E61"/>
<path d="M77.7449 28.3819C78.1562 28.3819 78.556 28.545 78.9445 28.8713C79.2644 29.2675 79.4243 29.6753 79.4243 30.0949C79.4243 30.5144 79.2644 30.9222 78.9445 31.3184C78.6017 31.668 78.2019 31.8428 77.7449 31.8428H67.0859C66.3548 31.8428 65.8407 31.5165 65.5436 30.8639C65.2466 30.0482 65.3037 29.4306 65.715 29.0111L74.2833 17.7545H67.0174C66.5604 17.7545 66.1605 17.5797 65.8178 17.2301C65.4979 16.8339 65.338 16.426 65.338 16.0065C65.338 15.587 65.4979 15.1792 65.8178 14.783C66.2062 14.4567 66.6061 14.2936 67.0174 14.2936H77.6764C78.4304 14.2936 78.9445 14.6198 79.2187 15.2724C79.5614 15.925 79.5043 16.5309 79.0473 17.0903L70.479 28.3819H77.7449Z" fill="#1C1E61"/>
<path d="M85.0055 38.9044C85.0055 39.3239 84.8456 39.7318 84.5257 40.128C84.1372 40.4543 83.7374 40.6174 83.3261 40.6174C82.8463 40.6174 82.4464 40.4543 82.1265 40.128C81.7838 39.7784 81.6124 39.3705 81.6124 38.9044V23.208C81.6124 20.8075 82.4578 18.745 84.1487 17.0203C85.8395 15.2957 87.8616 14.4334 90.215 14.4334C92.5913 14.4334 94.6248 15.2957 96.3157 17.0203C97.9836 18.7217 98.8176 20.7842 98.8176 23.208C98.8176 25.6551 97.9836 27.7293 96.3157 29.4306C94.6477 31.132 92.6141 31.9826 90.215 31.9826C88.2957 31.9826 86.5592 31.3883 85.0055 30.1997V38.9044ZM85.0055 23.243C85.0055 24.6879 85.5196 25.9348 86.5478 26.9835C87.5531 28.009 88.7755 28.5217 90.215 28.5217C91.6545 28.5217 92.8883 27.9973 93.9165 26.9486C94.9219 25.9231 95.4246 24.6763 95.4246 23.208C95.4246 21.8097 94.9219 20.5628 93.9165 19.4674C92.8883 18.4187 91.6545 17.8943 90.215 17.8943C88.7755 17.8943 87.5531 18.407 86.5478 19.4325C85.5196 20.4812 85.0055 21.7397 85.0055 23.208V23.243Z" fill="#1C1E61"/>
<path d="M115.152 29.2558C113.461 30.9805 111.428 31.8428 109.051 31.8428C106.698 31.8428 104.676 30.9805 102.985 29.2558C101.294 27.5312 100.449 25.4687 100.449 23.0682C100.449 20.6444 101.294 18.5702 102.985 16.8455C104.653 15.1442 106.675 14.2936 109.051 14.2936C111.451 14.2936 113.484 15.1442 115.152 16.8455C116.82 18.5469 117.654 20.6211 117.654 23.0682C117.654 25.492 116.82 27.5545 115.152 29.2558ZM112.753 19.2926C111.679 18.2672 110.445 17.7545 109.051 17.7545C107.612 17.7545 106.389 18.2672 105.384 19.2926C104.356 20.3414 103.842 21.5999 103.842 23.0682C103.842 24.5131 104.356 25.76 105.384 26.8087C106.389 27.8575 107.612 28.3819 109.051 28.3819C110.491 28.3819 111.725 27.8575 112.753 26.8087C113.758 25.7134 114.261 24.4665 114.261 23.0682C114.261 21.6465 113.758 20.388 112.753 19.2926Z" fill="#1C1E61"/>
<path d="M133.164 7.30184C133.164 6.88234 133.324 6.47449 133.644 6.07829C134.032 5.75201 134.432 5.58887 134.844 5.58887C135.278 5.58887 135.689 5.75201 136.077 6.07829C136.397 6.47449 136.557 6.88234 136.557 7.30184V22.9983C136.557 25.3987 135.712 27.4613 134.021 29.1859C132.33 30.9106 130.308 31.7729 127.955 31.7729C125.578 31.7729 123.545 30.9106 121.854 29.1859C120.186 27.4846 119.352 25.4221 119.352 22.9983C119.352 20.5512 120.186 18.4769 121.854 16.7756C123.522 15.0743 125.556 14.2236 127.955 14.2236C129.897 14.2236 131.633 14.8179 133.164 16.0065V7.30184ZM133.164 22.9633C133.164 21.565 132.662 20.3181 131.656 19.2227C130.582 18.1973 129.348 17.6845 127.955 17.6845C126.515 17.6845 125.293 18.1973 124.287 19.2227C123.259 20.2715 122.745 21.53 122.745 22.9983C122.745 24.4432 123.259 25.6901 124.287 26.7388C125.293 27.7876 126.515 28.312 127.955 28.312C129.394 28.312 130.628 27.7876 131.656 26.7388C132.662 25.7134 133.164 24.4665 133.164 22.9983V22.9633Z" fill="#1C1E61"/>
<path d="M155.221 30.0599C155.221 30.5726 155.062 30.9921 154.742 31.3184C154.422 31.6447 154.01 31.8078 153.508 31.8078C153.188 31.8078 152.834 31.6447 152.445 31.3184C152.057 30.9222 151.863 30.5027 151.863 30.0599C150.446 31.2252 148.755 31.8078 146.79 31.8078C144.368 31.8078 142.323 30.9921 140.655 29.3607C138.965 27.706 138.119 25.6551 138.119 23.208C138.119 20.7609 138.965 18.675 140.655 16.9504C142.346 15.2258 144.391 14.3635 146.79 14.3635C149.189 14.3635 151.2 15.2258 152.822 16.9504C154.422 18.6517 155.221 20.7376 155.221 23.208V30.0599ZM143.054 26.8787C144.037 27.8808 145.282 28.3819 146.79 28.3819C148.23 28.3819 149.441 27.8808 150.423 26.8787C151.383 25.8998 151.863 24.6763 151.863 23.208C151.863 21.7164 151.383 20.4463 150.423 19.3975C149.441 18.3255 148.23 17.7894 146.79 17.7894C145.351 17.7894 144.106 18.3255 143.054 19.3975C142.003 20.4696 141.478 21.7397 141.478 23.208C141.478 24.653 142.003 25.8765 143.054 26.8787Z" fill="#1C1E61"/>
<path d="M160.315 30.1298C160.315 30.5493 160.155 30.9572 159.835 31.3534C159.493 31.7029 159.093 31.8777 158.636 31.8777C158.156 31.8777 157.756 31.7029 157.436 31.3534C157.093 31.0038 156.922 30.5959 156.922 30.1298V23.1031C156.922 20.6793 157.767 18.6051 159.458 16.8805C161.126 15.1792 163.148 14.3285 165.525 14.3285C165.959 14.3285 166.37 14.4917 166.758 14.8179C167.078 15.2141 167.238 15.622 167.238 16.0415C167.238 16.461 167.078 16.8688 166.758 17.265C166.416 17.6146 166.004 17.7894 165.525 17.7894C164.085 17.7894 162.863 18.3021 161.857 19.3276C160.829 20.3764 160.315 21.6349 160.315 23.1031V30.1298Z" fill="#1C1E61"/>
<path d="M173.392 23.173L172.33 23.9072V30.0249C172.33 30.5144 172.159 30.9222 171.816 31.2485C171.473 31.5981 171.073 31.7729 170.616 31.7729C170.159 31.7729 169.76 31.5981 169.417 31.2485C169.097 30.9222 168.937 30.5144 168.937 30.0249V7.37176C168.937 6.95225 169.097 6.5444 169.417 6.14821C169.805 5.82193 170.205 5.65879 170.616 5.65879C171.028 5.65879 171.427 5.82193 171.816 6.14821C172.159 6.49779 172.33 6.90564 172.33 7.37176V19.817L180.11 14.6082C180.407 14.3052 180.818 14.177 181.344 14.2236C181.824 14.2703 182.212 14.4684 182.509 14.8179C182.806 15.1209 182.932 15.5404 182.886 16.0764C182.863 16.5426 182.658 16.9388 182.269 17.265L176.271 21.2853L182.509 28.9412C182.806 29.2442 182.932 29.6637 182.886 30.1997C182.863 30.6425 182.658 31.0271 182.269 31.3534C181.972 31.633 181.618 31.7729 181.207 31.7729C180.658 31.7729 180.224 31.5631 179.904 31.1436L173.392 23.173Z" fill="#1C1E61"/>
<path d="M199.712 30.0599C199.712 30.5726 199.553 30.9921 199.233 31.3184C198.913 31.6447 198.501 31.8078 197.999 31.8078C197.679 31.8078 197.325 31.6447 196.936 31.3184C196.548 30.9222 196.354 30.5027 196.354 30.0599C194.937 31.2252 193.246 31.8078 191.281 31.8078C188.859 31.8078 186.814 30.9921 185.146 29.3607C183.456 27.706 182.61 25.6551 182.61 23.208C182.61 20.7609 183.456 18.675 185.146 16.9504C186.837 15.2258 188.882 14.3635 191.281 14.3635C193.68 14.3635 195.691 15.2258 197.313 16.9504C198.913 18.6517 199.712 20.7376 199.712 23.208V30.0599ZM187.545 26.8787C188.528 27.8808 189.773 28.3819 191.281 28.3819C192.721 28.3819 193.932 27.8808 194.914 26.8787C195.874 25.8998 196.354 24.6763 196.354 23.208C196.354 21.7164 195.874 20.4463 194.914 19.3975C193.932 18.3255 192.721 17.7894 191.281 17.7894C189.842 17.7894 188.596 18.3255 187.545 19.3975C186.494 20.4696 185.969 21.7397 185.969 23.208C185.969 24.653 186.494 25.8765 187.545 26.8787Z" fill="#1C1E61"/>
<path d="M0.731445 44.2603V48.7248H1.50602V44.9703H3.55004V48.7248H4.32461V44.2603H0.731445Z" fill="#5F5F6B"/>
<path d="M7.8718 48.8539C9.22731 48.8539 10.2386 47.8642 10.2386 46.5087C10.2386 45.1532 9.23806 44.1527 7.8718 44.1527C6.50554 44.1527 5.50505 45.1532 5.50505 46.5087C5.50505 47.8642 6.5163 48.8539 7.8718 48.8539ZM7.8718 44.8412C8.68941 44.8412 9.44247 45.4114 9.44247 46.5087C9.44247 47.5952 8.67865 48.1654 7.8718 48.1654C7.07571 48.1654 6.30114 47.606 6.30114 46.5087C6.30114 45.4221 7.05419 44.8412 7.8718 44.8412Z" fill="#5F5F6B"/>
<path d="M11.7491 44.2603V46.2505C11.7491 46.7023 11.7169 47.1219 11.5662 47.4339C11.4156 47.7459 11.1252 48.004 10.7379 48.0148V49.9082H11.4479V48.7248H14.8474V49.9082H15.5575V48.0148H14.8905V44.2603H11.7491ZM14.1159 48.0148H11.9858C12.4054 47.649 12.5237 47.1649 12.5237 46.6485V44.9703H14.1159V48.0148Z" fill="#5F5F6B"/>
<path d="M19.7957 44.895C19.5913 44.626 19.1287 44.1527 18.268 44.1527C17.1277 44.1527 16.0949 44.9488 16.0949 46.4872C16.0949 48.0578 17.1385 48.8539 18.268 48.8539C19.0534 48.8539 19.5375 48.4344 19.7957 48.1009V48.7248H20.5702V44.2603H19.7957V44.895ZM18.3541 44.8412C19.0426 44.8412 19.8387 45.3468 19.8387 46.4979C19.8387 47.3801 19.3008 48.1654 18.3541 48.1654C17.4289 48.1654 16.891 47.4446 16.891 46.4872C16.891 45.4006 17.5903 44.8412 18.3541 44.8412Z" fill="#5F5F6B"/>
<path d="M22.8119 48.1009C23.1454 48.5312 23.651 48.8539 24.3718 48.8539C25.7273 48.8539 26.5126 47.7459 26.5126 46.5194C26.5126 45.3146 25.738 44.1527 24.3395 44.1527C24.0168 44.1527 23.339 44.228 22.8119 44.8842V44.2603H22.0373V51.2422H22.8119V48.1009ZM24.2642 48.1654C23.3498 48.1654 22.7688 47.4231 22.7688 46.5087C22.7688 45.4329 23.5326 44.8412 24.2534 44.8412C24.9742 44.8412 25.7165 45.4221 25.7165 46.5194C25.7165 47.4124 25.1679 48.1654 24.2642 48.1654Z" fill="#5F5F6B"/>
<path d="M29.787 48.8539C31.1425 48.8539 32.1537 47.8642 32.1537 46.5087C32.1537 45.1532 31.1532 44.1527 29.787 44.1527C28.4207 44.1527 27.4202 45.1532 27.4202 46.5087C27.4202 47.8642 28.4315 48.8539 29.787 48.8539ZM29.787 44.8412C30.6046 44.8412 31.3576 45.4114 31.3576 46.5087C31.3576 47.5952 30.5938 48.1654 29.787 48.1654C28.9909 48.1654 28.2163 47.606 28.2163 46.5087C28.2163 45.4221 28.9694 44.8412 29.787 44.8412Z" fill="#5F5F6B"/>
<path d="M35.7298 48.7248H36.5044V44.2603H35.7298V46.2613C35.3963 46.3258 35.0521 46.3581 34.7616 46.3581C34.5249 46.3581 34.2237 46.3366 34.0839 46.0676C34.0086 45.9385 33.987 45.7018 33.987 45.5405V44.2603H33.2125V45.6481C33.2125 46.0784 33.2878 46.4764 33.589 46.7454C33.9333 47.0573 34.4496 47.0681 34.6756 47.0681C34.9875 47.0681 35.4501 47.0143 35.7298 46.9713V48.7248Z" fill="#5F5F6B"/>
<path d="M37.9641 48.7248H38.7387V46.7992H40.8473V48.7248H41.6218V44.2603H40.8473V46.0891H38.7387V44.2603H37.9641V48.7248Z" fill="#5F5F6B"/>
<path d="M43.0805 48.7248H44.6404C45.0815 48.7248 45.5656 48.7141 45.9529 48.3483C46.1465 48.1654 46.3509 47.8319 46.3509 47.3478C46.3509 46.896 46.1788 46.584 46.0066 46.4119C45.6086 46.0031 45.0492 45.9708 44.6511 45.9708H43.8551V44.2603H43.0805V48.7248ZM43.8551 48.0363V46.6593H44.5866C44.834 46.6593 45.0815 46.6593 45.2751 46.7884C45.501 46.9283 45.5548 47.1542 45.5548 47.3478C45.5548 47.6921 45.3612 47.8534 45.2643 47.918C45.0815 48.0256 44.834 48.0363 44.5758 48.0363H43.8551ZM46.8888 48.7248H47.6634V44.2603H46.8888V48.7248Z" fill="#5F5F6B"/>
<path d="M52.4348 47.2295C52.338 47.4446 52.1766 47.6706 51.9722 47.8427C51.714 48.0578 51.4235 48.1654 51.0578 48.1654C50.2832 48.1654 49.6485 47.5737 49.6377 46.6485H53.1125C53.1341 46.0569 52.9727 45.3683 52.693 44.9703C52.424 44.583 51.8754 44.1527 51.004 44.1527C49.6592 44.1527 48.8416 45.1855 48.8416 46.5194C48.8416 48.1762 49.9712 48.8539 51.047 48.8539C51.6172 48.8539 52.1228 48.671 52.5316 48.3053C52.7575 48.1009 52.9512 47.8319 53.0803 47.5845L52.4348 47.2295ZM49.6915 46.0031C49.8098 45.3361 50.3477 44.8412 51.004 44.8412C51.6602 44.8412 52.1874 45.3038 52.3165 46.0031H49.6915Z" fill="#5F5F6B"/>
<path d="M57.5862 48.1009C57.9197 48.5312 58.4253 48.8539 59.1461 48.8539C60.5016 48.8539 61.2869 47.7459 61.2869 46.5194C61.2869 45.3146 60.5124 44.1527 59.1138 44.1527C58.7911 44.1527 58.1133 44.228 57.5862 44.8842V44.2603H56.8116V51.2422H57.5862V48.1009ZM59.0385 48.1654C58.1241 48.1654 57.5432 47.4231 57.5432 46.5087C57.5432 45.4329 58.307 44.8412 59.0278 44.8412C59.7485 44.8412 60.4908 45.4221 60.4908 46.5194C60.4908 47.4124 59.9422 48.1654 59.0385 48.1654Z" fill="#5F5F6B"/>
<path d="M65.7877 47.2295C65.6909 47.4446 65.5295 47.6706 65.3251 47.8427C65.0669 48.0578 64.7765 48.1654 64.4107 48.1654C63.6361 48.1654 63.0014 47.5737 62.9906 46.6485H66.4655C66.487 46.0569 66.3256 45.3683 66.0459 44.9703C65.777 44.583 65.2283 44.1527 64.3569 44.1527C63.0122 44.1527 62.1945 45.1855 62.1945 46.5194C62.1945 48.1762 63.3241 48.8539 64.3999 48.8539C64.9701 48.8539 65.4757 48.671 65.8845 48.3053C66.1105 48.1009 66.3041 47.8319 66.4332 47.5845L65.7877 47.2295ZM63.0444 46.0031C63.1628 45.3361 63.7007 44.8412 64.3569 44.8412C65.0131 44.8412 65.5403 45.3038 65.6694 46.0031H63.0444Z" fill="#5F5F6B"/>
<path d="M67.6536 48.7248H73.4199V44.2603H72.6453V48.0148H70.9241V44.2603H70.1495V48.0148H68.4282V44.2603H67.6536V48.7248Z" fill="#5F5F6B"/>
<path d="M78.1951 47.2295C78.0983 47.4446 77.9369 47.6706 77.7325 47.8427C77.4743 48.0578 77.1839 48.1654 76.8181 48.1654C76.0435 48.1654 75.4088 47.5737 75.398 46.6485H78.8729C78.8944 46.0569 78.733 45.3683 78.4533 44.9703C78.1843 44.583 77.6357 44.1527 76.7643 44.1527C75.4195 44.1527 74.6019 45.1855 74.6019 46.5194C74.6019 48.1762 75.7315 48.8539 76.8073 48.8539C77.3775 48.8539 77.8831 48.671 78.2919 48.3053C78.5179 48.1009 78.7115 47.8319 78.8406 47.5845L78.1951 47.2295ZM75.4518 46.0031C75.5702 45.3361 76.1081 44.8412 76.7643 44.8412C77.4205 44.8412 77.9477 45.3038 78.0768 46.0031H75.4518Z" fill="#5F5F6B"/>
<path d="M80.061 48.7248H80.8356V46.7992H82.9442V48.7248H83.7187V44.2603H82.9442V46.0891H80.8356V44.2603H80.061V48.7248Z" fill="#5F5F6B"/>
<path d="M85.1774 44.2603V49.0368L88.2326 45.7449V48.7248H89.0072V43.916L85.952 47.208V44.2603H85.1774Z" fill="#5F5F6B"/>
<path d="M89.9559 48.7248H90.8811L92.1506 46.9283H92.6239V48.7248H93.3985V44.2603H91.8386C91.3975 44.2603 90.9134 44.271 90.5261 44.6368C90.2787 44.8627 90.1281 45.2177 90.1281 45.6373C90.1281 46.0569 90.3002 46.3581 90.4831 46.5302C90.8058 46.8422 91.2899 46.8852 91.3437 46.8852L89.9559 48.7248ZM92.6239 46.2828H91.8924C91.7095 46.2828 91.4298 46.2935 91.2039 46.1537C91.0102 46.0353 90.9241 45.8525 90.9241 45.6158C90.9241 45.3253 91.0748 45.1532 91.2039 45.0671C91.3652 44.9703 91.5911 44.9488 91.9031 44.9488H92.6239V46.2828Z" fill="#5F5F6B"/>
<path d="M204.332 31.318C204.035 31.6676 203.635 31.8424 203.132 31.8424C202.675 31.8424 202.275 31.6676 201.932 31.318C201.613 30.9917 201.453 30.5839 201.453 30.0945C201.453 29.675 201.613 29.2671 201.932 28.8709C202.321 28.5446 202.721 28.3815 203.132 28.3815C203.612 28.3815 204.012 28.5446 204.332 28.8709C204.674 29.2205 204.846 29.6283 204.846 30.0945C204.846 30.5839 204.674 30.9917 204.332 31.318Z" fill="white"/>
<path d="M209.919 30.1294C209.919 30.5489 209.759 30.9568 209.439 31.353C209.096 31.7026 208.696 31.8773 208.239 31.8773C207.759 31.8773 207.36 31.7026 207.04 31.353C206.697 31.0034 206.526 30.5955 206.526 30.1294V23.1027C206.526 20.6789 207.371 18.6047 209.062 16.8801C210.73 15.1788 212.752 14.3281 215.128 14.3281C215.562 14.3281 215.974 14.4913 216.362 14.8175C216.682 15.2137 216.842 15.6216 216.842 16.0411C216.842 16.4606 216.682 16.8685 216.362 17.2646C216.019 17.6142 215.608 17.789 215.128 17.789C213.689 17.789 212.466 18.3018 211.461 19.3272C210.433 20.376 209.919 21.6345 209.919 23.1027V30.1294Z" fill="white"/>
<path d="M232.451 24.8507C232.406 26.8084 231.72 28.4631 230.395 29.8148C229.047 31.1898 227.413 31.8773 225.494 31.8773C223.598 31.8773 221.975 31.1898 220.627 29.8148C219.302 28.4631 218.617 26.8084 218.571 24.8507V16.0411C218.571 15.6216 218.731 15.2137 219.051 14.8175C219.439 14.4913 219.839 14.3281 220.25 14.3281C220.684 14.3281 221.096 14.4913 221.484 14.8175C221.804 15.2137 221.964 15.6216 221.964 16.0411V24.7808C221.964 25.7829 222.307 26.6336 222.992 27.3327C223.678 28.0552 224.512 28.4164 225.494 28.4164C226.477 28.4164 227.322 28.0552 228.03 27.3327C228.716 26.6336 229.058 25.7829 229.058 24.7808V16.0411C229.058 15.575 229.23 15.1671 229.573 14.8175C229.892 14.4913 230.292 14.3281 230.772 14.3281C231.183 14.3281 231.583 14.4913 231.972 14.8175C232.292 15.2137 232.451 15.6216 232.451 16.0411V24.8507Z" fill="white"/>
</g>
<defs>
<linearGradient id="paint0_linear" x1="229.095" y1="0.870443" x2="206.745" y2="44.8195" gradientUnits="userSpaceOnUse">
<stop stop-color="#FC77A0"/>
<stop offset="1" stop-color="#F40751"/>
</linearGradient>
<linearGradient id="paint1_linear" x1="229.095" y1="0.870443" x2="206.745" y2="44.8195" gradientUnits="userSpaceOnUse">
<stop stop-color="#FC77A0"/>
<stop offset="1" stop-color="#F40751"/>
</linearGradient>
<clipPath id="clip0">
<rect width="239.365" height="54" fill="white"/>
</clipPath>
</defs>
</svg>
