<svg width="166" height="45" viewBox="0 0 166 45" fill="none" xmlns="http://www.w3.org/2000/svg">
<g clip-path="url(#clip0)">
<path fill-rule="evenodd" clip-rule="evenodd" d="M37.8451 9.79231C40.3697 13.4783 41.7254 17.8939 41.7229 22.4218C41.7308 25.9965 40.8908 29.518 39.2776 32.6731C37.6645 35.8283 35.328 38.5195 32.4759 40.5076L30.1083 16.4999L28.1528 14.2373L4.40696 9.07201C7.07564 5.4979 10.7498 2.88176 14.9157 1.58932C19.0817 0.296868 23.5312 0.392716 27.6423 1.86346C31.7534 3.33421 35.3206 6.10633 37.8451 9.79231ZM0.0247179 21.6907C0.0368481 21.4506 0.0488885 21.2123 0.0488885 20.974L19.0176 24.8517L20.6868 44.1524C15.1861 44.1026 9.9268 41.7923 6.05279 37.7242C2.17879 33.6561 0.00347375 28.1592 0 22.4291C0 22.1799 0.0124053 21.9344 0.0247179 21.6907Z" fill="url(#paint0_linear)"/>
<path d="M55.7261 10.149C55.7261 5.99495 57.4651 2.60477 63.6949 2.60477H64.4841C66.4011 2.59514 68.3114 2.8396 70.1691 3.33227V7.09349C68.2836 6.54649 66.3366 6.26271 64.3793 6.24958C59.7768 6.24958 59.7768 8.12655 59.7768 10.7456C59.7768 13.3646 59.7768 15.2561 64.3793 15.2561C66.3375 15.2345 68.2843 14.9434 70.1691 14.3904V18.1516C68.3089 18.6301 66.4002 18.8743 64.4841 18.8791H63.6949C57.4651 18.8791 55.7261 15.4889 55.7261 11.3349V10.149Z" fill="#393D44"/>
<path d="M86.5464 6.96191V18.4274H83.0544V11.3633L76.8665 18.4274H73.3745V6.96191H76.8665V14.0187L83.0544 6.96191H86.5464Z" fill="#393D44"/>
<path d="M88.6729 12.2298C88.6729 9.06517 90.1598 6.49707 95.3641 6.49707H96.0184C97.6445 6.4991 99.2645 6.69206 100.844 7.0718V10.4911C99.2392 10.0617 97.585 9.83675 95.9218 9.82178C92.4051 9.82178 92.4051 11.044 92.4051 12.6954C92.4051 14.3469 92.4051 15.5545 95.9218 15.5545C97.5847 15.5427 99.239 15.3201 100.844 14.8925V18.3118C99.2642 18.6891 97.6442 18.8796 96.0184 18.8792H95.3641C90.1152 18.8792 88.6729 16.3111 88.6729 13.1465V12.2298Z" fill="#393D44"/>
<path d="M107.604 18.4274V10.2866H103.414V6.96191H115.321V10.2866H111.131V18.4274H107.604Z" fill="#393D44"/>
<path d="M123.759 18.8792C118.828 18.8792 117.473 16.3111 117.473 13.1465V12.2298C117.473 9.06517 118.835 6.49707 123.759 6.49707H124.38C129.395 6.49707 130.429 8.14851 130.429 10.1346V10.3601C130.429 12.1935 129.905 13.8012 124.401 13.8012C123.25 13.8311 122.1 13.6915 120.986 13.3866C121.056 14.6961 121.496 15.5182 124.422 15.5182C126.151 15.508 127.873 15.2784 129.549 14.8343V18.2754C127.781 18.6525 125.982 18.8427 124.178 18.8429L123.759 18.8792ZM121.098 10.9712C122.106 11.2241 123.141 11.339 124.178 11.3132C126.755 11.3132 126.909 10.8548 126.909 10.4474C126.909 10.04 126.776 9.36345 124.401 9.36345C122.027 9.36345 121.321 9.93818 121.098 10.9712Z" fill="#393D44"/>
<path d="M138.84 15.903L136.047 12.1854V18.4274H132.555V6.96191H135.718L139.706 12.0545L143.687 6.96191H146.858V18.4274H143.366V12.1854L140.572 15.903H138.84Z" fill="#393D44"/>
<path d="M162.212 18.4273H161.332L160.145 17.6998C158.585 18.5251 156.851 18.9303 155.102 18.8784C150.346 18.8784 148.984 17.0669 148.984 15.0299V14.7971C148.984 12.8764 150.458 11.2905 155.033 11.2905C156.273 11.2607 157.511 11.4075 158.713 11.727C158.664 10.512 158.357 9.8209 155.452 9.8209C153.678 9.82161 151.911 10.0538 150.193 10.512V7.07093C151.953 6.69765 153.746 6.50998 155.542 6.51074C160.431 6.51074 162.212 8.27859 162.212 11.5596V18.4273ZM158.72 15.5173V14.4551C157.59 14.1583 156.428 14.0189 155.263 14.0404C152.644 14.0404 152.511 14.5934 152.511 15.0517C152.511 15.51 152.686 16.0193 155.48 16.0193C156.568 16.0267 157.651 15.8624 158.692 15.5318L158.72 15.5173Z" fill="#393D44"/>
<path d="M74.0735 24.626V42.1589H69.5479V28.8164H61.2508V42.1589H56.7251V24.626H74.0735Z" fill="#393D44"/>
<path d="M95.3307 31.5637C95.3307 35.0194 93.8711 37.8494 88.64 37.8494H87.9416C86.2127 37.8974 84.4827 37.8098 82.7664 37.5875V42.2872H78.2407V24.7543C81.2952 24.4044 84.3658 24.2295 87.4387 24.2305H88.1371C93.7663 24.2305 95.3307 27.0605 95.3307 30.5161V31.5637ZM90.8051 31.0399C90.8051 29.4904 90.8051 28.4209 87.4108 28.4209C86.3492 28.4209 84.4146 28.5009 82.7594 28.6537V33.4189C84.2424 33.604 85.7358 33.6842 87.2292 33.659C90.8051 33.659 90.8051 32.5532 90.8051 31.0399Z" fill="#393D44"/>
<path d="M97.792 32.7016C97.792 27.9655 99.8244 24.0879 107.144 24.0879H108.045C115.364 24.0879 117.396 27.9655 117.396 32.7016V34.062C117.396 38.8054 115.364 42.683 108.045 42.683H107.144C99.8244 42.683 97.792 38.8054 97.792 34.062V32.7016ZM107.57 38.5216C112.843 38.5216 112.843 36.0845 112.843 33.4291C112.843 30.7737 112.843 28.3365 107.57 28.3365C102.297 28.3365 102.29 30.7737 102.29 33.4291C102.29 36.0845 102.339 38.5216 107.619 38.5216H107.57Z" fill="#393D44"/>
<path d="M130.61 38.5796L125.889 31.6973V42.1589H121.363V24.626H125.889L131.77 33.6107L137.65 24.626H142.176V42.1589H137.65V31.6973L132.929 38.5796H130.61Z" fill="#393D44"/>
<path d="M145.293 32.7016C145.293 27.9655 147.326 24.0879 154.645 24.0879H155.574C162.893 24.0879 164.926 27.9655 164.926 32.7016V34.062C164.926 38.8054 162.893 42.683 155.574 42.683H154.673C147.354 42.683 145.321 38.8054 145.321 34.062L145.293 32.7016ZM155.071 38.5216C160.351 38.5216 160.351 36.0845 160.351 33.4291C160.351 30.7737 160.351 28.3365 155.071 28.3365C149.791 28.3365 149.791 30.7737 149.791 33.4291C149.791 36.0845 149.812 38.5216 155.092 38.5216H155.071Z" fill="#393D44"/>
</g>
<defs>
<linearGradient id="paint0_linear" x1="15.2135" y1="36.4552" x2="33.6841" y2="5.86778" gradientUnits="userSpaceOnUse">
<stop stop-color="#FA040F"/>
<stop offset="1" stop-color="#FB0E71"/>
</linearGradient>
<clipPath id="clip0">
<rect width="165.174" height="43.4669" fill="white" transform="translate(0 0.685547)"/>
</clipPath>
</defs>
</svg>
