<svg width="40" height="40" viewBox="0 0 40 40" fill="none" xmlns="http://www.w3.org/2000/svg">
<path fill-rule="evenodd" clip-rule="evenodd" d="M17.6038 22.1624C20.4833 24.4659 23.99 27.9593 26.3418 32.663L23.6585 34.0046C21.5659 29.8192 18.4059 26.6459 15.7298 24.505C14.397 23.4389 13.199 22.6405 12.339 22.1113C11.9095 21.847 11.5655 21.6506 11.3329 21.5222C11.2166 21.458 11.1282 21.4109 11.0709 21.3809C11.0423 21.3659 11.0215 21.3552 11.0089 21.3487L10.9961 21.3422L10.996 21.3422L10.9953 21.3418C10.9954 21.3418 10.9954 21.3418 10.996 21.3407L10.996 18.6603C10.9954 18.6592 10.9953 18.6592 10.9953 18.6592L10.996 18.6589L10.9961 18.6588L11.0088 18.6523C11.0215 18.6458 11.0423 18.6351 11.0709 18.6201C11.1281 18.5901 11.2165 18.543 11.3328 18.4788C11.5655 18.3504 11.9094 18.154 12.339 17.8897C13.199 17.3605 14.397 16.562 15.7298 15.4958C18.4059 13.3549 21.5659 10.1815 23.6585 5.99609L26.3418 7.3377C23.99 12.0415 20.4833 15.5349 17.6039 17.8384C16.4893 18.7301 15.4599 19.4506 14.6134 20.0005C15.4599 20.5504 16.4893 21.2708 17.6038 22.1624Z" fill="#1D1D2D"/>
</svg>
