<svg width="23" height="18" viewBox="0 0 23 18" fill="none" xmlns="http://www.w3.org/2000/svg">
<path fill-rule="evenodd" clip-rule="evenodd" d="M5.05934 10.2497L22.5 10.2497L22.5 7.74969L5.059 7.74969C6.75487 6.34922 8.75226 4.29032 10.1182 1.55844L7.88208 0.440429C6.65673 2.8912 4.8012 4.75791 3.21925 6.0235C2.4327 6.65274 1.72598 7.12365 1.22 7.43502C0.967363 7.59049 0.765806 7.70556 0.630649 7.78012C0.563102 7.81739 0.512239 7.84449 0.479982 7.86141L0.445831 7.87914L0.441106 7.88156L0.440511 7.88186L0.441106 7.88284L0.441133 10.1164L0.44054 10.1173L0.441133 10.1176L0.445858 10.1201L0.480009 10.1378C0.512266 10.1547 0.563129 10.1818 0.630674 10.2191C0.765829 10.2936 0.967386 10.4087 1.22002 10.5642C1.726 10.8755 2.43272 11.3464 3.21926 11.9756C4.80121 13.2412 6.65674 15.1078 7.88208 17.5586L10.1182 16.4406C8.75235 13.7089 6.75515 11.6501 5.05934 10.2497Z" fill="#1D1D2D"/>
</svg>
