<svg width="24" height="24" viewBox="0 0 24 24" fill="none" xmlns="http://www.w3.org/2000/svg">
<path fill-rule="evenodd" clip-rule="evenodd" d="M12.219 10.9766C10.4676 9.57547 8.32316 7.44214 6.88184 4.55941L9.11792 3.4414C10.3433 5.89216 12.1988 7.75883 13.7807 9.02437C14.5673 9.6536 15.274 10.1245 15.78 10.4358C16.0326 10.5913 16.2342 10.7064 16.3693 10.7809C16.4369 10.8182 16.4877 10.8453 16.52 10.8622L16.5541 10.8799L16.5589 10.8824L16.5595 10.8827C16.5594 10.8826 16.5594 10.8826 16.5589 10.8836L16.5589 13.1172C16.5594 13.1182 16.5595 13.1182 16.5595 13.1181L16.5589 13.1184L16.5542 13.1209L16.52 13.1386C16.4878 13.1555 16.4369 13.1826 16.3694 13.2199C16.2342 13.2944 16.0326 13.4095 15.78 13.565C15.274 13.8764 14.5673 14.3473 13.7808 14.9765C12.1988 16.2421 10.3433 18.1088 9.11792 20.5596L6.88184 19.4416C8.32316 16.5588 10.4676 14.4255 12.219 13.0243C12.715 12.6275 13.1834 12.2863 13.6012 12.0004C13.1835 11.7146 12.715 11.3734 12.219 10.9766Z" fill="#93939A"/>
</svg>
