<svg width="24" height="24" viewBox="0 0 24 24" fill="none" xmlns="http://www.w3.org/2000/svg">
<path d="M20.3669 8.53118C20.2719 7.5968 19.4637 6.87264 18.4891 6.87264H16.7539V6.45216C16.7539 3.71912 14.7097 1.5 12.0475 1.5H11.9525C9.31403 1.5 7.24605 3.71912 7.24605 6.45216V6.87264H5.51085C4.53629 6.87264 3.75192 7.5968 3.63307 8.53118L2.25441 21.4722C2.23064 21.7292 2.30195 22.0095 2.49211 22.1964C2.68227 22.3832 2.91996 22.5 3.2052 22.5H20.7948C21.0563 22.5 21.3177 22.3832 21.5079 22.1964C21.698 22.0095 21.7694 21.7292 21.7456 21.4722L20.3669 8.53118ZM9.14763 6.45216C9.14763 4.74693 10.3599 3.36875 11.9525 3.36875H12.0475C13.6401 3.36875 14.8524 4.74693 14.8524 6.45216V6.87264H9.14763V6.45216ZM4.25107 20.6546L5.51085 8.74139H18.4416L19.7014 20.6546H4.25107Z" fill="white"/>
</svg>
