<svg width="8" height="13" viewBox="0 0 8 13" fill="none" xmlns="http://www.w3.org/2000/svg">
<path d="M6.83333 6.50032L7.28055 7.39475L7.28052 5.60589L6.83333 6.50032ZM0.605567 1.61419C1.58085 3.56481 3.02976 5.00481 4.20864 5.94791C4.80163 6.42229 5.33626 6.77889 5.72592 7.01867C5.92103 7.13874 6.08062 7.23002 6.19402 7.29258C6.25075 7.32388 6.296 7.34803 6.32844 7.36505C6.34466 7.37356 6.35769 7.38029 6.36736 7.38524C6.3722 7.38772 6.37619 7.38975 6.37933 7.39133C6.3809 7.39213 6.38225 7.39281 6.38339 7.39338C6.38396 7.39367 6.38447 7.39393 6.38493 7.39416C6.38516 7.39427 6.38546 7.39442 6.38558 7.39448C6.38587 7.39462 6.38614 7.39476 6.83333 6.50032C7.28052 5.60589 7.28077 5.60601 7.28101 5.60613C7.28107 5.60616 7.28129 5.60627 7.28141 5.60633C7.28166 5.60645 7.28184 5.60655 7.28198 5.60662C7.28225 5.60675 7.28232 5.60679 7.28217 5.60671C7.28187 5.60656 7.28074 5.60599 7.2788 5.60499C7.2749 5.603 7.26775 5.59931 7.2575 5.59394C7.23699 5.58318 7.20411 5.56567 7.16014 5.54141C7.07216 5.49287 6.94008 5.41749 6.77408 5.31534C6.44152 5.11069 5.97614 4.80065 5.45802 4.38616C4.41468 3.5515 3.19693 2.32483 2.39443 0.719789L0.605567 1.61419ZM2.39443 12.281C3.19693 10.6759 4.41469 9.44922 5.45803 8.61454C5.97616 8.20003 6.44154 7.88997 6.7741 7.68532C6.9401 7.58316 7.07218 7.50778 7.16016 7.45924C7.20413 7.43498 7.23701 7.41746 7.25752 7.4067C7.26777 7.40133 7.27492 7.39764 7.27882 7.39565C7.28076 7.39465 7.2819 7.39408 7.28219 7.39393C7.28234 7.39385 7.28228 7.39388 7.282 7.39402C7.28187 7.39409 7.28168 7.39419 7.28143 7.39431C7.28131 7.39437 7.28109 7.39448 7.28103 7.39451C7.2808 7.39463 7.28055 7.39475 6.83333 6.50032C6.38612 5.6059 6.38584 5.60604 6.38555 5.60618C6.38544 5.60624 6.38514 5.60639 6.38491 5.6065C6.38445 5.60674 6.38393 5.60699 6.38337 5.60728C6.38223 5.60785 6.38088 5.60853 6.37931 5.60933C6.37617 5.61091 6.37218 5.61294 6.36734 5.61542C6.35767 5.62037 6.34464 5.6271 6.32842 5.63561C6.29598 5.65263 6.25073 5.67678 6.194 5.70808C6.0806 5.77065 5.92101 5.86193 5.7259 5.982C5.33624 6.22179 4.80162 6.57841 4.20863 7.05281C3.02975 7.99593 1.58085 9.43595 0.605568 11.3866L2.39443 12.281Z" fill="#1D1D2D"/>
</svg>
