<svg width="16" height="16" viewBox="0 0 16 16" fill="none" xmlns="http://www.w3.org/2000/svg">
<path fill-rule="evenodd" clip-rule="evenodd" d="M8.5523 8.70854C9.49539 7.52966 10.9354 6.08075 12.886 5.10547L13.7804 6.89433C12.1754 7.69683 10.9487 8.91459 10.114 9.95792C9.69956 10.476 9.38951 10.9414 9.18487 11.274C9.08272 11.44 9.00734 11.5721 8.9588 11.66C8.93454 11.704 8.91703 11.7369 8.90627 11.7574L8.89522 11.7787L8.89408 11.7809C8.89409 11.7809 8.8941 11.7809 8.89328 11.7804L7.10649 11.7804C7.10567 11.7809 7.10569 11.7809 7.1057 11.7809L7.1059 11.7813L7.10456 11.7787L7.0935 11.7574C7.08274 11.7369 7.06523 11.704 7.04097 11.6601C6.99243 11.5721 6.91704 11.44 6.81489 11.274C6.61024 10.9414 6.30018 10.4761 5.88567 9.95794C5.05099 8.91459 3.82429 7.69683 2.21924 6.89433L3.11364 5.10547C5.06426 6.08075 6.50428 7.52965 7.4474 8.70853C7.65383 8.96657 7.83796 9.21355 7.99986 9.44235C8.16176 9.21355 8.34588 8.96657 8.5523 8.70854Z" fill="white"/>
</svg>
