<svg width="64" height="64" viewBox="0 0 64 64" fill="none" xmlns="http://www.w3.org/2000/svg">
<path opacity="0.3" fill-rule="evenodd" clip-rule="evenodd" d="M31.9998 55.9997C20.2178 55.9997 10.6665 46.4484 10.6665 34.6663C10.6665 22.8843 20.2178 13.333 31.9998 13.333C43.7819 13.333 53.3332 22.8843 53.3332 34.6663C53.3332 46.4484 43.7819 55.9997 31.9998 55.9997Z" fill="#F72E6C"/>
<path fill-rule="evenodd" clip-rule="evenodd" d="M34.6667 13.4981V10.6663H37.3333C38.8061 10.6663 40 9.47243 40 7.99967C40 6.52691 38.8061 5.33301 37.3333 5.33301H26.6667C25.1939 5.33301 24 6.52691 24 7.99967C24 9.47243 25.1939 10.6663 26.6667 10.6663H29.3333V13.4981C30.2069 13.3891 31.0969 13.333 32 13.333C32.9031 13.333 33.7931 13.3891 34.6667 13.4981Z" fill="#F72E6C"/>
<path fill-rule="evenodd" clip-rule="evenodd" d="M48.4455 21.0767L51.711 17.8112C52.1015 17.4207 52.1015 16.7875 51.711 16.397L49.3539 14.04C48.9634 13.6494 48.3303 13.6494 47.9397 14.04L44.5596 17.4201C46.0026 18.4729 47.3086 19.7023 48.4455 21.0767Z" fill="#F72E6C"/>
<path fill-rule="evenodd" clip-rule="evenodd" d="M30.6313 20.4617C30.6513 20.2012 30.8685 20 31.1298 20H32.8704C33.1317 20 33.3489 20.2012 33.3689 20.4617L34.6254 36.795C34.6477 37.0854 34.4181 37.3333 34.1268 37.3333H29.8734C29.5821 37.3333 29.3525 37.0854 29.3748 36.795L30.6313 20.4617Z" fill="#F72E6C"/>
</svg>
