<svg width="64" height="64" viewBox="0 0 64 64" fill="none" xmlns="http://www.w3.org/2000/svg">
<path opacity="0.3" fill-rule="evenodd" clip-rule="evenodd" d="M34.7778 2.66699H12.5556C8.80547 2.66699 7 5.28357 7 9.33366V54.667C7 58.7171 8.80547 61.3337 12.5556 61.3337H34.7778C38.5279 61.3337 40.3333 58.7171 40.3333 54.667V9.33366C40.3333 5.28357 38.5279 2.66699 34.7778 2.66699ZM10.7037 50.667V10.667H36.6297V50.667H10.7037Z" fill="#F72E6C"/>
<path opacity="0.3" fill-rule="evenodd" clip-rule="evenodd" d="M18.6665 10.667V50.667H45.3332V10.667H18.6665Z" fill="white"/>
<path fill-rule="evenodd" clip-rule="evenodd" d="M23.6667 58.6663C25.1394 58.6663 26.3333 57.4724 26.3333 55.9997C26.3333 54.5269 25.1394 53.333 23.6667 53.333C22.1939 53.333 21 54.5269 21 55.9997C21 57.4724 22.1939 58.6663 23.6667 58.6663Z" fill="white"/>
<path d="M23.375 21.75C23.375 20.6454 24.2704 19.75 25.375 19.75H53.625C54.7296 19.75 55.625 20.6454 55.625 21.75V41.0417C55.625 42.1462 54.7296 43.0417 53.625 43.0417H25.375C24.2704 43.0417 23.375 42.1462 23.375 41.0417V21.75Z" fill="#F72E6C"/>
<path fill-rule="evenodd" clip-rule="evenodd" d="M50.5089 23.0466C51.1623 22.6948 51.9772 22.9393 52.3291 23.5927C52.6809 24.2461 52.4364 25.061 51.783 25.4129L40.1372 31.6837C39.7394 31.8979 39.2607 31.8979 38.863 31.6837L27.2172 25.4129C26.5638 25.061 26.3193 24.2461 26.6711 23.5927C27.023 22.9393 27.8379 22.6948 28.4913 23.0466L39.5001 28.9744L50.5089 23.0466Z" fill="white"/>
</svg>
