<svg width="64" height="64" viewBox="0 0 64 64" fill="none" xmlns="http://www.w3.org/2000/svg">
<path opacity="0.3" fill-rule="evenodd" clip-rule="evenodd" d="M32.4474 55.1357L22.3758 60L17.7937 49.8133L6.9452 47.0791L9.99665 36.3365L3.44737 27.2833L12.7045 21.0113L13.519 9.87504L24.6503 11.0084L32.4474 3L40.2444 11.0084L51.3758 9.87504L52.1902 21.0113L61.4474 27.2833L54.8981 36.3365L57.9495 47.0791L47.101 49.8133L42.519 60L32.4474 55.1357Z" fill="#F72E6C"/>
<path fill-rule="evenodd" clip-rule="evenodd" d="M22.9998 33.0003H19.6665C19.6665 40.3641 25.636 46.3337 32.9998 46.3337C40.3636 46.3337 46.3332 40.3641 46.3332 33.0003C46.3332 25.6365 40.3636 19.667 32.9998 19.667C29.7065 19.667 26.6089 20.87 24.215 22.9691L22.3283 21.648C21.9917 21.4123 21.5303 21.6606 21.5417 22.0714L21.7363 29.1089C21.7455 29.4436 22.0747 29.6748 22.3926 29.57L29.094 27.361C29.4849 27.2322 29.5614 26.7127 29.2243 26.4766L27.0548 24.9575C28.7459 23.705 30.814 23.0003 32.9998 23.0003C38.5227 23.0003 42.9998 27.4775 42.9998 33.0003C42.9998 38.5232 38.5227 43.0003 32.9998 43.0003C27.477 43.0003 22.9998 38.5232 22.9998 33.0003Z" fill="#F72E6C"/>
</svg>
