<svg width="276" height="61" viewBox="0 0 276 61" fill="none" xmlns="http://www.w3.org/2000/svg">
<path d="M109.447 53.0787C109.447 53.0787 132.477 48.002 162.484 54.9436C196.442 62.8177 230.648 47.8984 230.648 47.8984" stroke="#F72E6C" stroke-width="0.720942" stroke-miterlimit="10"/>
<path d="M178.327 52.4868C178.327 52.4868 196.129 50.4323 209.388 54.0277C225.715 60.4468 221.905 48.9941 229.415 48.4805" stroke="#F72E6C" stroke-width="0.720942" stroke-miterlimit="10"/>
<path d="M264.335 42.1949C254.983 53.5526 239.546 56.955 230.392 49.4003C221.237 41.8456 221.818 26.1444 231.17 14.7867C240.522 3.42896 253.984 2.87453 263.138 10.4292C272.293 17.9839 273.687 30.8372 264.335 42.1949Z" fill="url(#paint0_linear)"/>
<path d="M231.563 49.1589L230.029 47.8607L227.092 49.7355L230.338 52.4907L231.563 49.1589Z" fill="#E71F5D"/>
<path d="M14.0525 36.3627C14.5183 36.3627 14.9712 36.5439 15.4111 36.9062C15.7735 37.3461 15.9546 37.799 15.9546 38.2649C15.9546 38.7307 15.7735 39.1836 15.4111 39.6235C15.023 40.0117 14.5701 40.2058 14.0525 40.2058H1.97977C1.15163 40.2058 0.569345 39.8435 0.232914 39.1189C-0.103517 38.2131 -0.038819 37.5273 0.427009 37.0615L10.1318 24.5618H1.90213C1.38455 24.5618 0.931656 24.3677 0.543466 23.9795C0.181155 23.5395 0 23.0866 0 22.6208C0 22.155 0.181155 21.7021 0.543466 21.2621C0.983415 20.8998 1.4363 20.7187 1.90213 20.7187H13.9748C14.8289 20.7187 15.4111 21.081 15.7217 21.8056C16.1099 22.5302 16.0452 23.2031 15.5276 23.8242L5.82285 36.3627H14.0525Z" fill="white"/>
<path d="M35.5239 38.226C35.5239 38.7954 35.3427 39.2612 34.9804 39.6235C34.6181 39.9858 34.1523 40.167 33.583 40.167C33.2206 40.167 32.8195 39.9858 32.3796 39.6235C31.9396 39.1836 31.7196 38.7178 31.7196 38.226C30.1151 39.52 28.2 40.167 25.9744 40.167C23.2312 40.167 20.915 39.2612 19.0258 37.4497C17.1107 35.6122 16.1532 33.3349 16.1532 30.6175C16.1532 27.9002 17.1107 25.584 19.0258 23.6689C20.9409 21.7538 23.2571 20.7963 25.9744 20.7963C28.6918 20.7963 30.9691 21.7538 32.8066 23.6689C34.6181 25.5581 35.5239 27.8743 35.5239 30.6175V38.226ZM21.7431 34.6935C22.856 35.8063 24.2664 36.3627 25.9744 36.3627C27.6048 36.3627 28.9764 35.8063 30.0892 34.6935C31.1762 33.6066 31.7196 32.2479 31.7196 30.6175C31.7196 28.9612 31.1762 27.5508 30.0892 26.3862C28.9764 25.1958 27.6048 24.6006 25.9744 24.6006C24.344 24.6006 22.9336 25.1958 21.7431 26.3862C20.5527 27.5767 19.9575 28.9871 19.9575 30.6175C19.9575 32.222 20.5527 33.5807 21.7431 34.6935Z" fill="white"/>
<path d="M42.5805 30.5787L41.3771 31.3939V38.1872C41.3771 38.7307 41.183 39.1836 40.7948 39.5459C40.4066 39.9341 39.9537 40.1282 39.4361 40.1282C38.9185 40.1282 38.4656 39.9341 38.0775 39.5459C37.7151 39.1836 37.534 38.7307 37.534 38.1872V13.0325C37.534 12.5667 37.7151 12.1138 38.0775 11.6738C38.5174 11.3115 38.9703 11.1304 39.4361 11.1304C39.902 11.1304 40.3548 11.3115 40.7948 11.6738C41.183 12.062 41.3771 12.5149 41.3771 13.0325V26.8521L50.189 21.068C50.5254 20.7316 50.9913 20.5893 51.5865 20.641C52.1299 20.6928 52.5699 20.9128 52.9063 21.301C53.2428 21.6374 53.3851 22.1032 53.3333 22.6984C53.3075 23.216 53.0745 23.656 52.6346 24.0183L45.8413 28.4825L52.9063 36.9838C53.2428 37.3203 53.3851 37.7861 53.3333 38.3813C53.3075 38.873 53.0745 39.3 52.6346 39.6623C52.2982 39.9729 51.897 40.1282 51.4312 40.1282C50.8101 40.1282 50.3184 39.8953 49.9561 39.4294L42.5805 30.5787Z" fill="white"/>
<path d="M72.3913 38.226C72.3913 38.7954 72.2102 39.2612 71.8479 39.6235C71.4856 39.9858 71.0197 40.167 70.4504 40.167C70.0881 40.167 69.687 39.9858 69.247 39.6235C68.8071 39.1836 68.5871 38.7178 68.5871 38.226C66.9826 39.52 65.0675 40.167 62.8419 40.167C60.0987 40.167 57.7825 39.2612 55.8933 37.4497C53.9782 35.6122 53.0207 33.3349 53.0207 30.6175C53.0207 27.9002 53.9782 25.584 55.8933 23.6689C57.8083 21.7538 60.1245 20.7963 62.8419 20.7963C65.5592 20.7963 67.8366 21.7538 69.674 23.6689C71.4856 25.5581 72.3913 27.8743 72.3913 30.6175V38.226ZM58.6106 34.6935C59.7234 35.8063 61.1338 36.3627 62.8419 36.3627C64.4723 36.3627 65.8439 35.8063 66.9567 34.6935C68.0436 33.6066 68.5871 32.2479 68.5871 30.6175C68.5871 28.9612 68.0436 27.5508 66.9567 26.3862C65.8439 25.1958 64.4723 24.6006 62.8419 24.6006C61.2115 24.6006 59.801 25.1958 58.6106 26.3862C57.4201 27.5767 56.8249 28.9871 56.8249 30.6175C56.8249 32.222 57.4201 33.5807 58.6106 34.6935Z" fill="white"/>
<path d="M87.7064 36.3627C88.1722 36.3627 88.6251 36.5439 89.065 36.9062C89.4273 37.3461 89.6085 37.799 89.6085 38.2649C89.6085 38.7307 89.4273 39.1836 89.065 39.6235C88.6768 40.0117 88.2239 40.2058 87.7064 40.2058H75.6336C74.8055 40.2058 74.2232 39.8435 73.8868 39.1189C73.5504 38.2131 73.6151 37.5273 74.0809 37.0615L83.7856 24.5618H75.556C75.0384 24.5618 74.5855 24.3677 74.1973 23.9795C73.835 23.5395 73.6539 23.0866 73.6539 22.6208C73.6539 22.155 73.835 21.7021 74.1973 21.2621C74.6373 20.8998 75.0902 20.7187 75.556 20.7187H87.6287C88.4827 20.7187 89.065 21.081 89.3756 21.8056C89.7638 22.5302 89.6991 23.2031 89.1815 23.8242L79.4767 36.3627H87.7064Z" fill="white"/>
<path d="M95.9299 48.0473C95.9299 48.5131 95.7488 48.966 95.3865 49.4059C94.9465 49.7682 94.4936 49.9494 94.0278 49.9494C93.4843 49.9494 93.0314 49.7682 92.6691 49.4059C92.2809 49.0177 92.0868 48.5648 92.0868 48.0473V30.6175C92.0868 27.9519 93.0444 25.6616 94.9595 23.7466C96.8745 21.8315 99.1648 20.8739 101.83 20.8739C104.522 20.8739 106.825 21.8315 108.74 23.7466C110.629 25.6357 111.574 27.9261 111.574 30.6175C111.574 33.3349 110.629 35.6381 108.74 37.5273C106.851 39.4165 104.548 40.3611 101.83 40.3611C99.6565 40.3611 97.6897 39.7012 95.9299 38.3813V48.0473ZM95.9299 30.6563C95.9299 32.2609 96.5122 33.6454 97.6768 34.81C98.8155 35.9487 100.2 36.518 101.83 36.518C103.461 36.518 104.858 35.9357 106.023 34.7712C107.162 33.6325 107.731 32.2479 107.731 30.6175C107.731 29.0648 107.162 27.6802 106.023 26.4639C104.858 25.2993 103.461 24.717 101.83 24.717C100.2 24.717 98.8155 25.2864 97.6768 26.4251C96.5122 27.5896 95.9299 28.9871 95.9299 30.6175V30.6563Z" fill="white"/>
<path d="M130.075 37.3332C128.16 39.2483 125.857 40.2058 123.165 40.2058C120.5 40.2058 118.209 39.2483 116.294 37.3332C114.379 35.4181 113.422 33.1278 113.422 30.4622C113.422 27.7708 114.379 25.4675 116.294 23.5525C118.183 21.6633 120.474 20.7187 123.165 20.7187C125.882 20.7187 128.186 21.6633 130.075 23.5525C131.964 25.4417 132.909 27.7449 132.909 30.4622C132.909 33.1537 131.964 35.444 130.075 37.3332ZM127.358 26.2698C126.141 25.1311 124.744 24.5618 123.165 24.5618C121.535 24.5618 120.15 25.1311 119.011 26.2698C117.847 27.4344 117.265 28.8318 117.265 30.4622C117.265 32.0668 117.847 33.4513 119.011 34.6159C120.15 35.7804 121.535 36.3627 123.165 36.3627C124.796 36.3627 126.193 35.7804 127.358 34.6159C128.496 33.3995 129.066 32.015 129.066 30.4622C129.066 28.8836 128.496 27.4861 127.358 26.2698Z" fill="white"/>
<path d="M150.476 12.9549C150.476 12.489 150.657 12.0361 151.02 11.5962C151.46 11.2339 151.912 11.0527 152.378 11.0527C152.87 11.0527 153.336 11.2339 153.776 11.5962C154.138 12.0361 154.319 12.489 154.319 12.9549V30.3846C154.319 33.0502 153.362 35.3405 151.447 37.2556C149.531 39.1706 147.241 40.1282 144.576 40.1282C141.884 40.1282 139.581 39.1706 137.666 37.2556C135.777 35.3664 134.832 33.0761 134.832 30.3846C134.832 27.6673 135.777 25.364 137.666 23.4748C139.555 21.5856 141.858 20.641 144.576 20.641C146.775 20.641 148.742 21.301 150.476 22.6208V12.9549ZM150.476 30.3458C150.476 28.793 149.907 27.4085 148.768 26.1922C147.552 25.0535 146.154 24.4841 144.576 24.4841C142.945 24.4841 141.561 25.0535 140.422 26.1922C139.257 27.3567 138.675 28.7542 138.675 30.3846C138.675 31.9891 139.257 33.3737 140.422 34.5382C141.561 35.7028 142.945 36.2851 144.576 36.2851C146.206 36.2851 147.603 35.7028 148.768 34.5382C149.907 33.3995 150.476 32.015 150.476 30.3846V30.3458Z" fill="white"/>
<path d="M175.459 38.226C175.459 38.7954 175.278 39.2612 174.915 39.6235C174.553 39.9858 174.087 40.167 173.518 40.167C173.156 40.167 172.754 39.9858 172.315 39.6235C171.875 39.1836 171.655 38.7178 171.655 38.226C170.05 39.52 168.135 40.167 165.909 40.167C163.166 40.167 160.85 39.2612 158.961 37.4497C157.046 35.6122 156.088 33.3349 156.088 30.6175C156.088 27.9002 157.046 25.584 158.961 23.6689C160.876 21.7538 163.192 20.7963 165.909 20.7963C168.627 20.7963 170.904 21.7538 172.742 23.6689C174.553 25.5581 175.459 27.8743 175.459 30.6175V38.226ZM161.678 34.6935C162.791 35.8063 164.201 36.3627 165.909 36.3627C167.54 36.3627 168.911 35.8063 170.024 34.6935C171.111 33.6066 171.655 32.2479 171.655 30.6175C171.655 28.9612 171.111 27.5508 170.024 26.3862C168.911 25.1958 167.54 24.6006 165.909 24.6006C164.279 24.6006 162.869 25.1958 161.678 26.3862C160.488 27.5767 159.892 28.9871 159.892 30.6175C159.892 32.222 160.488 33.5807 161.678 34.6935Z" fill="white"/>
<path d="M181.228 38.3037C181.228 38.7695 181.047 39.2224 180.685 39.6623C180.296 40.0505 179.843 40.2446 179.326 40.2446C178.782 40.2446 178.33 40.0505 177.967 39.6623C177.579 39.2742 177.385 38.8213 177.385 38.3037V30.5011C177.385 27.8096 178.342 25.5063 180.258 23.5913C182.147 21.7021 184.437 20.7575 187.129 20.7575C187.62 20.7575 188.086 20.9386 188.526 21.301C188.888 21.7409 189.069 22.1938 189.069 22.6596C189.069 23.1255 188.888 23.5783 188.526 24.0183C188.138 24.4065 187.672 24.6006 187.129 24.6006C185.498 24.6006 184.114 25.1699 182.975 26.3086C181.81 27.4732 181.228 28.8707 181.228 30.5011V38.3037Z" fill="white"/>
<path d="M196.04 30.5787L194.837 31.3939V38.1872C194.837 38.7307 194.642 39.1836 194.254 39.5459C193.866 39.9341 193.413 40.1282 192.896 40.1282C192.378 40.1282 191.925 39.9341 191.537 39.5459C191.175 39.1836 190.993 38.7307 190.993 38.1872V13.0325C190.993 12.5667 191.175 12.1138 191.537 11.6738C191.977 11.3115 192.43 11.1304 192.896 11.1304C193.361 11.1304 193.814 11.3115 194.254 11.6738C194.642 12.062 194.837 12.5149 194.837 13.0325V26.8521L203.648 21.068C203.985 20.7316 204.451 20.5893 205.046 20.641C205.589 20.6928 206.029 20.9128 206.366 21.301C206.702 21.6374 206.845 22.1032 206.793 22.6984C206.767 23.216 206.534 23.656 206.094 24.0183L199.301 28.4825L206.366 36.9838C206.702 37.3203 206.845 37.7861 206.793 38.3813C206.767 38.873 206.534 39.3 206.094 39.6623C205.758 39.9729 205.356 40.1282 204.891 40.1282C204.27 40.1282 203.778 39.8953 203.416 39.4294L196.04 30.5787Z" fill="white"/>
<path d="M225.851 38.226C225.851 38.7954 225.67 39.2612 225.307 39.6235C224.945 39.9858 224.479 40.167 223.91 40.167C223.548 40.167 223.146 39.9858 222.706 39.6235C222.267 39.1836 222.047 38.7178 222.047 38.226C220.442 39.52 218.527 40.167 216.301 40.167C213.558 40.167 211.242 39.2612 209.353 37.4497C207.438 35.6122 206.48 33.3349 206.48 30.6175C206.48 27.9002 207.438 25.584 209.353 23.6689C211.268 21.7538 213.584 20.7963 216.301 20.7963C219.019 20.7963 221.296 21.7538 223.133 23.6689C224.945 25.5581 225.851 27.8743 225.851 30.6175V38.226ZM212.07 34.6935C213.183 35.8063 214.593 36.3627 216.301 36.3627C217.932 36.3627 219.303 35.8063 220.416 34.6935C221.503 33.6066 222.047 32.2479 222.047 30.6175C222.047 28.9612 221.503 27.5508 220.416 26.3862C219.303 25.1958 217.932 24.6006 216.301 24.6006C214.671 24.6006 213.26 25.1958 212.07 26.3862C210.88 27.5767 210.284 28.9871 210.284 30.6175C210.284 32.222 210.88 33.5807 212.07 34.6935Z" fill="white"/>
<path d="M231.083 39.6219C230.746 40.0101 230.293 40.2042 229.724 40.2042C229.206 40.2042 228.753 40.0101 228.365 39.6219C228.003 39.2596 227.822 38.8067 227.822 38.2632C227.822 37.7974 228.003 37.3445 228.365 36.9046C228.805 36.5423 229.258 36.3611 229.724 36.3611C230.267 36.3611 230.72 36.5423 231.083 36.9046C231.471 37.2928 231.665 37.7456 231.665 38.2632C231.665 38.8067 231.471 39.2596 231.083 39.6219Z" fill="white"/>
<path d="M237.411 38.3021C237.411 38.7679 237.23 39.2208 236.867 39.6607C236.479 40.0489 236.026 40.243 235.509 40.243C234.965 40.243 234.512 40.0489 234.15 39.6607C233.762 39.2725 233.568 38.8196 233.568 38.3021V30.4994C233.568 27.808 234.525 25.5047 236.44 23.5896C238.329 21.7005 240.62 20.7559 243.311 20.7559C243.803 20.7559 244.269 20.937 244.709 21.2993C245.071 21.7393 245.252 22.1922 245.252 22.658C245.252 23.1238 245.071 23.5767 244.709 24.0167C244.32 24.4048 243.855 24.5989 243.311 24.5989C241.681 24.5989 240.296 25.1683 239.158 26.307C237.993 27.4715 237.411 28.869 237.411 30.4994V38.3021Z" fill="white"/>
<path d="M262.932 32.4404C262.88 34.6143 262.104 36.4517 260.603 37.9527C259.076 39.4796 257.226 40.243 255.052 40.243C252.904 40.243 251.066 39.4796 249.539 37.9527C248.038 36.4517 247.262 34.6143 247.21 32.4404V22.658C247.21 22.1922 247.392 21.7393 247.754 21.2993C248.194 20.937 248.647 20.7559 249.112 20.7559C249.604 20.7559 250.07 20.937 250.51 21.2993C250.872 21.7393 251.053 22.1922 251.053 22.658V32.3627C251.053 33.4756 251.442 34.4202 252.218 35.1965C252.994 35.9988 253.939 36.3999 255.052 36.3999C256.165 36.3999 257.122 35.9988 257.924 35.1965C258.701 34.4202 259.089 33.4756 259.089 32.3627V22.658C259.089 22.1404 259.283 21.6875 259.671 21.2993C260.034 20.937 260.486 20.7559 261.03 20.7559C261.496 20.7559 261.949 20.937 262.389 21.2993C262.751 21.7393 262.932 22.1922 262.932 22.658V32.4404Z" fill="white"/>
<defs>
<linearGradient id="paint0_linear" x1="264.528" y1="9.14965" x2="226.15" y2="49.8111" gradientUnits="userSpaceOnUse">
<stop stop-color="#FC77A0"/>
<stop offset="1" stop-color="#F40751"/>
</linearGradient>
</defs>
</svg>
